# xmcd
#
# Track frame offsets:
#	150
#	23365
#	44038
#	64338
#	77948
#	88998
#	103968
#	122431
#	143271
#	158183
#	173443
#	188816
#	211703
#	221958
#	244290
#	264175
#	280235
#	302102
#
# Disc length: 4194 seconds
#
# Revision: 1
# Processed by: cddbd v1.5.2PL0 Copyright (c) Steve Scherf et al.
# Submitted via: audiograbber 1.83.01
#
DISCID=fd106012
DTITLE=milti - R&B 3
DYEAR=1900
DGENRE=karaoke
TTITLE0=George Benson - On Broadway 
TTITLE1=Toni Braxton - He Wasnt Man Enough 
TTITLE2=Commodores - Easy 
TTITLE3=Dells - Oh What A Night 
TTITLE4=Gladys Knight - Every Beat Of My Heart 
TTITLE5=Ohio Players - Fire
TTITLE6=Kool and The Gang - Too Hot 
TTITLE7=Toni Braxton - Unbreak My Heart
TTITLE8=Moonglows - Sincerely
TTITLE9=Lena Horne - I Got A Right To Sing The Blues 
TTITLE10=Main Ingredient - Everybody Plays The Fool
TTITLE11=Mariah Carey and Boyz II Men - One Sweet Day 
TTITLE12=Jackie Wilson - Thats Why I LoveYou So
TTITLE13=Roberta Flack - First Time Ever I Saw Your Face 
TTITLE14=Procol Harum - A Whiter Shade Of Pale
TTITLE15=Mariah Carey - Heartbreaker
TTITLE16=Brandy - Sittin Up In My Room
TTITLE17=Little Anthony and The Imperials - Going Out Of My Head Over You 
EXTD=
EXTT0=
EXTT1=
EXTT2=
EXTT3=
EXTT4=
EXTT5=
EXTT6=
EXTT7=
EXTT8=
EXTT9=
EXTT10=
EXTT11=
EXTT12=
EXTT13=
EXTT14=
EXTT15=
EXTT16=
EXTT17=
PLAYORDER=
